# xmcd
#
# Track frame offsets:
# 150
# 13276
# 27034
# 44146
# 60314
# 76081
# 90421
# 100526
# 109764
# 124791
# 139761
# 149541
# 161456
# 177041
#
# Disc length: 2501 seconds
#
#
# Revision: 0
# Processed by: cddbd v1.5.2PL0 Copyright (c) Steve Scherf et al.
# Submitted via: FreeRIP 2.96 
#
DISCID=ac09c30e
DTITLE=GINO E GENO - SUPER 3 - CD1 - 
DYEAR=1900
DGENRE=
TTITLE0=SOU FEIO MAIS TÕ NA MODA
TTITLE1=O QUE EU TÕ FAZANDO AQUI?
TTITLE2=MULHER QUE NÃO DÁ VOA
TTITLE3=QUANDO ELA QUER
TTITLE4=BEBO PRA CARAI
TTITLE5=DOR DE CABEÇA
TTITLE6=CARA CHEIA
TTITLE7=PAIXÃO QUE DÓI
TTITLE8=NOITE X
TTITLE9=O GATO COMEU
TTITLE10=MEU CHACUNDUM
TTITLE11=FRUTRA PROIBIDA
TTITLE12=AGORA É SÓ ALEGRIA
TTITLE13=CHURRASCO DE PAIXÃO
EXTD=
EXTT0=
EXTT1=
EXTT2=
EXTT3=
EXTT4=
EXTT5=
EXTT6=
EXTT7=
EXTT8=
EXTT9=
EXTT10=
EXTT11=
EXTT12=
EXTT13=
PLAYORDER=
